<?xml version="1.0" encoding="UTF-8" standalone="no"?>
<!-- Created with Inkscape (http://www.inkscape.org/) -->

<svg
   xmlns:dc="http://purl.org/dc/elements/1.1/"
   xmlns:cc="http://creativecommons.org/ns#"
   xmlns:rdf="http://www.w3.org/1999/02/22-rdf-syntax-ns#"
   xmlns:svg="http://www.w3.org/2000/svg"
   xmlns="http://www.w3.org/2000/svg"
   xmlns:xlink="http://www.w3.org/1999/xlink"
   xmlns:sodipodi="http://sodipodi.sourceforge.net/DTD/sodipodi-0.dtd"
   xmlns:inkscape="http://www.inkscape.org/namespaces/inkscape"
   width="210mm"
   height="297mm"
   id="svg3182"
   version="1.1"
   inkscape:version="0.48.1 "
   sodipodi:docname="Jupiter.svg">
  <defs
     id="defs3184">
    <linearGradient
       inkscape:collect="always"
       xlink:href="#linearGradient4099"
       id="linearGradient4105"
       x1="-836.89911"
       y1="826.60846"
       x2="-1824.0343"
       y2="1564.9342"
       gradientUnits="userSpaceOnUse" />
    <linearGradient
       inkscape:collect="always"
       id="linearGradient4099">
      <stop
         style="stop-color:#683f0a;stop-opacity:1;"
         offset="0"
         id="stop4101" />
      <stop
         style="stop-color:#683f0a;stop-opacity:0;"
         offset="1"
         id="stop4103" />
    </linearGradient>
  </defs>
  <sodipodi:namedview
     id="base"
     pagecolor="#ffffff"
     bordercolor="#666666"
     borderopacity="1.0"
     inkscape:pageopacity="0.0"
     inkscape:pageshadow="2"
     inkscape:zoom="0.35"
     inkscape:cx="350"
     inkscape:cy="520"
     inkscape:document-units="px"
     inkscape:current-layer="layer1"
     showgrid="false"
     inkscape:window-width="1280"
     inkscape:window-height="706"
     inkscape:window-x="-8"
     inkscape:window-y="-8"
     inkscape:window-maximized="1" />
  <metadata
     id="metadata3187">
    <rdf:RDF>
      <cc:Work
         rdf:about="">
        <dc:format>image/svg+xml</dc:format>
        <dc:type
           rdf:resource="http://purl.org/dc/dcmitype/StillImage" />
        <dc:title></dc:title>
      </cc:Work>
    </rdf:RDF>
  </metadata>
  <g
     inkscape:label="Capa 1"
     inkscape:groupmode="layer"
     id="layer1">
    <g
       transform="translate(67.550844,-370.12145)"
       id="g3410">
      <path
         transform="matrix(0.44609439,0,0,0.40372304,788.22202,436.51999)"
         d="m -766.0824,1033.8578 c 0,183.9546 -142.49691,333.0793 -318.2758,333.0793 -175.7788,0 -318.2757,-149.1247 -318.2757,-333.0793 0,-183.95462 142.4969,-333.0793 318.2757,-333.0793 175.77889,0 318.2758,149.12468 318.2758,333.0793 z"
         sodipodi:ry="333.07928"
         sodipodi:rx="318.27576"
         sodipodi:cy="1033.8578"
         sodipodi:cx="-1084.3582"
         id="path4065"
         style="color:#000000;fill:url(#linearGradient4105);fill-opacity:1;fill-rule:evenodd;stroke:#000000;stroke-width:2.35637736;stroke-linecap:butt;stroke-linejoin:miter;stroke-miterlimit:4;stroke-opacity:1;stroke-dasharray:none;stroke-dashoffset:0;marker:none;visibility:visible;display:inline;overflow:visible;enable-background:accumulate"
         sodipodi:type="arc" />
      <path
         sodipodi:nodetypes="cssssssssssccccccssssssssssssscscssccssssccssscsssssccsssscssscccsssscssssccssccscsssscsc"
         inkscape:connector-curvature="0"
         id="path4071"
         d="m 183.59097,802.66878 c 3.72276,-0.2816 7.88283,0.2816 11.60559,0 2.92682,-0.2214 5.77144,-0.9268 8.70419,-1.0974 3.37499,-0.1965 6.76992,0 10.15489,0 5.31923,0 10.64581,0.2114 15.95769,0 19.98539,-0.7958 3.63972,-1.0485 20.30977,-2.1949 2.40791,-0.1656 4.83567,0 7.25349,0 3.38496,0 6.76993,0 10.1549,0 11.12202,0 22.24404,0 33.36607,0 8.22062,0 16.44124,0 24.66187,0 3.38496,0 6.76992,0 10.15488,0 1.43444,0 4.54182,-0.2385 5.8028,0 1.48351,0.2806 2.86859,0.8168 4.35209,1.0974 1.40739,0.2662 2.94472,-0.2661 4.3521,0 1.04901,0.1984 1.85239,0.8991 2.9014,1.0975 0.93826,0.1775 1.98389,-0.2314 2.9014,0 0.64877,0.1636 0.88169,0.8104 1.45069,1.0974 0.8997,0.4538 1.8756,0.8388 2.90141,1.0974 0.81847,0.2065 3.39883,0 4.35209,0 3.38496,0 6.76992,0 10.15489,0 10.63846,0 21.27692,0 31.91537,0 4.83566,0 9.67133,0 14.50698,0 0.96713,0 1.93427,0 2.9014,0 0.48356,0 1.4507,-0.3657 1.4507,0 0,0.3659 -1.93427,0 -1.4507,0 0.96714,0 1.93426,0 2.90139,0 0.48357,0 1.45071,-0.3657 1.45071,0 0,0.3659 -1.45071,-0.3657 -1.45071,0 0,0.5174 1.14488,0.6348 1.45071,1.0976 0.43689,0.6609 5.12692,4.5279 5.54958,5.4871 0.34193,0.7761 1.10877,2.5164 1.4507,3.2925 0.15292,0.347 -5.54958,0.7315 -5.54958,1.0974 0,0.3657 0.34193,0.8387 0,1.0974 -0.0466,0.035 -4.00027,0 -4.3521,0 -0.48356,0 -0.96714,0 -1.4507,0 -0.48357,0 -1.01818,0.1636 -1.4507,0 -0.61167,-0.2314 -0.83903,-0.866 -1.4507,-1.0974 -0.43251,-0.1636 -0.96713,0 -1.4507,0 -0.48356,0 -0.96713,0 -1.4507,0 -2.90139,0 -5.80278,0 -8.70419,0 -0.48356,0 -0.96713,0 -1.45069,0 -0.48357,0 -1.01818,0.1636 -1.4507,0 -0.61167,-0.2314 -0.83903,-0.8662 -1.4507,-1.0974 -0.52875,-0.2001 -6.41761,0 -7.25349,0 -9.62272,0 2.05159,0.5172 -4.3521,-1.0976 -0.91751,-0.2313 -1.93426,0 -2.9014,0 -0.48357,0 -1.01818,0.1636 -1.45069,0 -0.61167,-0.2313 -0.83904,-0.8661 -1.4507,-1.0974 -0.44106,-0.1669 -4.80106,0 -5.8028,0 -4.83566,0 -9.67132,0 -14.50699,0 -2.90139,0 -5.80279,0 -8.70418,0 -0.48357,0 -0.96714,0 -1.45071,0 -0.48356,0 -1.01818,0.1636 -1.45069,0 -0.61167,-0.2314 -0.83903,-0.8661 -1.4507,-1.0975 -0.38145,-0.1442 -5.0442,0 -5.8028,0 -4.83566,0 -6.89653,-2.7436 -11.73219,-2.7436 -4.83566,0 -15.22091,0 -20.05657,0 -1.22824,0 -2.2481,2.5469 -3.028,2.7436 -0.64877,0.1636 -5.46369,-2.9749 -6.07535,-2.7436 -0.44151,0.167 0.92589,3.8411 0.27255,3.8411 -3.38495,0 -7.69485,-3.2923 -11.07982,-3.2923 -1.66346,0 -3.37509,0.2645 -4.87786,0.5487 -1.04901,0.1983 -6.50025,0.29 -7.52605,0.5487 -1.30338,0.3286 1.60878,0.296 0.27256,0.5487 -1.48352,0.2806 -4.71846,0.2682 -6.20196,0.5488 -1.26097,0.2384 -3.44344,1.6461 -4.87787,1.6461 -3.86852,0 -5.88719,-1.6461 -9.75572,-1.6461 -3.38496,0 -3.99514,-0.5488 -7.3801,-0.5488 -1.16786,0 -11.36677,0.8679 -12.27731,1.0975 -1.0258,0.2587 -2.80052,0.29 -3.82633,0.5487 -0.81848,0.2064 -7.09855,0.5487 -8.05182,0.5487 -3.38496,0 -5.845,-1.0975 -9.22995,-1.0975 -14.02343,0 -21.57232,3.8412 -35.59575,3.8412 -0.48357,0 -1.01818,0.1636 -1.4507,0 -0.61166,-0.2314 -0.88168,-0.8106 -1.45069,-1.0974 -0.89969,-0.4538 -3.38496,-0.3659 -2.9014,-1.0976 0.48357,-0.7316 3.98268,1.0976 2.9014,1.0976 -12.63041,0 -1.87934,-0.3244 -4.3521,-2.195 -0.34193,-0.2587 -1.10877,0.2587 -1.45069,0 -0.34194,-0.2587 -10.75727,4.6484 -11.09919,4.3898 -0.34194,-0.2587 8.23114,-0.9338 7.79862,-1.0974 -3.20757,-1.2134 -7.84963,1.5137 -8.85015,0 -0.30584,-0.4628 3.4798,-6.6707 3.17396,-7.1335 -0.21625,-0.3272 4.62465,-1.2804 4.62465,-1.6461 0,-0.3658 0,-0.7317 0,-1.0974 0,-0.3659 0,-0.7317 0,-1.0976 0,-0.3657 -0.34193,-0.8387 0,-1.0974 0.34194,-0.2587 0.96714,0 1.4507,0 2.41784,0 4.83568,0 7.2535,0 z"
         style="fill:#0d79da;fill-opacity:0.62980772;stroke:#000000;stroke-width:0;stroke-linecap:butt;stroke-linejoin:miter;stroke-miterlimit:4;stroke-opacity:1;stroke-dasharray:none" />
      <path
         style="fill:#0d79da;fill-opacity:0.62980772;stroke:#000000;stroke-width:0;stroke-linecap:butt;stroke-linejoin:miter;stroke-miterlimit:4;stroke-opacity:1;stroke-dasharray:none"
         d="m 190.10762,789.16658 c 3.51688,-0.2183 7.44688,0.2184 10.96376,0 2.76495,-0.1716 5.45226,-0.7185 8.22282,-0.8508 3.18835,-0.1522 6.39553,0 9.5933,0 5.02505,0 10.05706,0.164 15.07517,0 18.88014,-0.6169 3.43844,-0.8128 19.18658,-1.7016 2.27474,-0.1284 4.56823,0 6.85235,0 3.19776,0 6.39553,0 9.5933,0 10.50693,0 21.01387,0 31.52082,0 7.76599,0 15.53199,0 23.29799,0 3.19777,0 6.39553,0 9.59329,0 1.3551,0 4.29064,-0.1849 5.48189,0 1.40146,0.2175 2.70993,0.6333 4.1114,0.8508 1.32956,0.2064 2.78187,-0.2064 4.11141,0 0.99099,0.1538 1.74996,0.697 2.74094,0.8508 0.88638,0.1376 1.87419,-0.1793 2.74095,0 0.61289,0.1269 0.83293,0.6283 1.37046,0.8508 0.84994,0.3518 1.77188,0.6503 2.74095,0.8508 0.77321,0.1601 3.21086,0 4.11142,0 3.19776,0 6.39552,0 9.59329,0 10.05011,0 20.10022,0 30.15034,0 4.56824,0 9.13647,0 13.7047,0 0.91365,0 1.8273,0 2.74095,0 0.45682,0 1.37047,-0.2835 1.37047,0 0,0.2837 -1.8273,0 -1.37047,0 0.91364,0 1.82728,0 2.74093,0 0.45683,0 1.37047,-0.2835 1.37047,0 0,0.2837 -1.37047,-0.2835 -1.37047,0 0,0.4011 1.08156,0.4921 1.37047,0.8509 0.41273,0.5124 4.84339,3.5104 5.24268,4.2541 0.32302,0.6015 1.04745,1.9508 1.37047,2.5524 0.14447,0.2691 -5.24267,0.5672 -5.24267,0.8508 0,0.2836 0.32302,0.6503 0,0.8508 -0.044,0.027 -3.77904,0 -4.11141,0 -0.45683,0 -0.91365,0 -1.37047,0 -0.45683,0 -0.96188,0.1269 -1.37048,0 -0.57784,-0.1793 -0.79263,-0.6714 -1.37047,-0.8508 -0.40859,-0.1268 -0.91364,0 -1.37047,0 -0.45682,0 -0.91364,0 -1.37047,0 -2.74094,0 -5.48188,0 -8.22282,0 -0.45683,0 -0.91365,0 -1.37047,0 -0.45683,0 -0.96187,0.1268 -1.37047,0 -0.57784,-0.1794 -0.79263,-0.6714 -1.37047,-0.8508 -0.4995,-0.1551 -6.06269,0 -6.85235,0 -9.09056,0 1.93813,0.4011 -4.11141,-0.8508 -0.86677,-0.1794 -1.8273,0 -2.74094,0 -0.45683,0 -0.96188,0.1268 -1.37047,0 -0.57785,-0.1794 -0.79263,-0.6715 -1.37047,-0.8508 -0.41668,-0.1293 -4.53554,0 -5.48188,0 -4.56824,0 -9.13647,0 -13.70472,0 -2.74092,0 -5.48187,0 -8.22281,0 -0.45682,0 -0.91365,0 -1.37048,0 -0.45682,0 -0.96187,0.1268 -1.37046,0 -0.57785,-0.1794 -0.79263,-0.6715 -1.37047,-0.8508 -0.36036,-0.1119 -4.76524,0 -5.48188,0 -4.56824,0 -6.51514,-2.1271 -11.08337,-2.1271 -4.56823,0 -14.37915,0 -18.94738,0 -1.16031,0 -2.12377,1.9746 -2.86054,2.1271 -0.61289,0.1268 -5.16153,-2.3065 -5.73937,-2.1271 -0.41708,0.1295 0.87469,2.9779 0.25749,2.9779 -3.19776,0 -7.26931,-2.5525 -10.46708,-2.5525 -1.57146,0 -3.18844,0.2051 -4.6081,0.4255 -0.99099,0.1537 -6.14077,0.2248 -7.10983,0.4254 -1.2313,0.2547 1.5198,0.2294 0.25748,0.4254 -1.40147,0.2174 -4.45751,0.2078 -5.85897,0.4254 -1.19124,0.1849 -3.253,1.2762 -4.6081,1.2762 -3.65459,0 -5.56161,-1.2762 -9.21621,-1.2762 -3.19776,0 -3.77419,-0.4254 -6.97195,-0.4254 -1.10328,0 -10.73815,0.6728 -11.59834,0.8508 -0.96907,0.2005 -2.64565,0.2248 -3.61472,0.4254 -0.77322,0.16 -6.70598,0.4254 -7.60653,0.4254 -3.19776,0 -5.52175,-0.8508 -8.71951,-0.8508 -13.24788,0 -20.3793,2.9778 -33.62719,2.9778 -0.45682,0 -0.96186,0.1268 -1.37047,0 -0.57783,-0.1794 -0.83292,-0.6283 -1.37047,-0.8508 -0.84992,-0.3518 -3.19775,-0.2836 -2.74094,-0.8508 0.45683,-0.5672 3.76243,0.8508 2.74094,0.8508 -11.9319,0 -1.7754,-0.2514 -4.1114,-1.7016 -0.32303,-0.2006 -1.04746,0.2005 -1.37047,0 -0.32303,-0.2006 -10.16235,3.6038 -10.48536,3.4032 -0.32303,-0.2005 7.77592,-0.724 7.36732,-0.8508 -3.03018,-0.9406 -7.41552,1.1736 -8.3607,0 -0.28893,-0.3587 3.28735,-5.1715 2.99842,-5.5303 -0.20429,-0.2537 4.36891,-0.9926 4.36891,-1.2762 0,-0.2836 0,-0.5672 0,-0.8508 0,-0.2836 0,-0.5672 0,-0.8509 0,-0.2835 -0.32303,-0.6502 0,-0.8508 0.32302,-0.2005 0.91364,0 1.37046,0 2.28411,0 4.56824,0 6.85236,0 z"
         id="path4073"
         inkscape:connector-curvature="0"
         sodipodi:nodetypes="cssssssssssccccccssssssssssssscscssccssssccssscsssssccsssscssscccsssscssssccssccscsssscsc" />
      <path
         style="fill:#0d79da;fill-opacity:0.62980772;stroke:#000000;stroke-width:0;stroke-linecap:butt;stroke-linejoin:miter;stroke-miterlimit:4;stroke-opacity:1;stroke-dasharray:none"
         d="m 171.1966,845.47338 c 4.13678,-0.612 11.352,-0.1351 15.48877,-0.747 3.25232,-0.4813 -18.40076,6.9548 -17.11709,4.3389 3.75033,-7.6426 275.41573,-6.6218 279.17714,-4.4824 4.93792,2.8085 -233.59474,0.4596 -227.69212,0 22.208,-1.7291 6.63703,1.4571 25.16097,-1.0341 2.67569,-0.3598 5.37344,0 8.06016,0 3.7614,0 7.52282,0 11.28423,0 12.35891,0 24.71782,0 37.07674,0 9.13485,0 18.2697,0 27.40455,0 3.76141,0 7.52282,0 11.28422,0 1.59396,0 5.04692,-0.5182 6.44814,0 1.64849,0.6097 3.1876,1.7751 4.83609,2.3846 1.5639,0.5785 12.77808,-1.3253 14.34197,-0.747 1.16567,0.4311 5.51509,-1.7818 6.68076,-1.3505 1.0426,0.3855 3.06869,0.9913 4.08824,1.4941 0.72091,0.3554 37.27491,5.4964 37.90719,6.12 0.99975,0.9858 -47.17354,-5.6482 -46.03366,-5.0862 0.9095,0.4485 25.38108,-0.747 26.44036,-0.747 3.76141,0 47.27467,-2.9883 51.03609,-2.9883 11.82157,0 -14.38038,2.9883 -2.5588,2.9883 5.37344,0 -2.21568,1.4941 3.15775,1.4941 1.0747,0 -9.08484,5.9765 -8.01015,5.9765 0.53734,0 1.61204,-0.7948 1.61204,0 0,0.795 2.17147,-3.7353 2.70882,-3.7353 1.07468,0 -2.17149,3.7353 -1.0968,3.7353 0.53735,0 1.61204,-0.7948 1.61204,0 0,0.795 -1.61204,-0.7948 -1.61204,0 0,1.1242 3.00054,-7.5854 3.34038,-6.58 0.48548,1.4363 0.51208,-2.114 0.98175,-0.03 0.37995,1.6862 -0.49628,-3.4968 -0.11632,-1.8107 0.16993,0.7542 -0.98174,31.4724 -0.98174,32.2672 0,0.795 0.37996,1.8228 0,2.3848 -0.0518,0.077 -4.44514,0 -4.83609,0 -0.53735,0 -1.0747,0 -1.61204,0 -0.53735,0 -1.13142,0.3555 -1.61203,0 -0.67969,-0.5027 -0.93234,-1.882 -1.61204,-2.3848 -0.48061,-0.3554 -1.07468,0 -1.61203,0 -0.53734,0 -1.07468,0 -1.61203,0 -3.22406,0 13.4278,-0.747 10.20373,-0.747 -0.53734,0 9.29536,0 8.75802,0 -0.53734,0 -1.99558,0.3555 -2.4762,0 -0.6797,-0.5027 0.796,-2.6289 0.11631,-3.1317 -0.58755,-0.4346 -4.53881,0 -5.46765,0 -10.69288,0 -31.4229,2.6184 -38.53876,-0.8905 -1.01954,-0.5028 -2.14937,0 -3.22406,0 -0.53735,0 -1.13141,0.3555 -1.61203,0 -0.67969,-0.5028 -0.93234,-1.882 -1.61204,-2.3848 -0.49011,-0.3624 -5.33498,0 -6.44813,0 -5.37344,0 -10.74688,0 -16.12032,0 -3.22406,0 -6.44813,0 -9.6722,0 -0.53734,0 -1.07469,0 -1.61203,0 -0.53734,0 -1.13141,0.3556 -1.61202,0 -0.6797,-0.5026 -0.93235,-1.8818 -1.61204,-2.3846 -0.42388,-0.3135 -5.60517,0 -6.44813,0 -5.37345,0 -7.66351,-5.9617 -13.03695,-5.9617 -5.37343,0 20.2457,3.7353 14.87226,3.7353 -1.36483,0 -39.65745,1.7991 -40.52408,2.2264 -0.72093,0.3555 17.26129,-4.9702 16.58159,-4.4676 -0.49059,0.363 -22.30373,6.8522 -23.02973,6.8522 -3.76141,0 17.37451,-8.648 13.6131,-8.648 -1.84845,0 4.89126,5.0572 3.22138,5.6747 -1.16567,0.4311 -41.78999,-2.358 -42.92987,-1.796 -1.44833,0.7142 1.7877,0.6433 0.30287,1.1923 -1.64849,0.6096 -5.24319,0.5827 -6.89168,1.1925 -1.40121,0.5182 -3.82638,3.577 -5.42034,3.577 -4.29875,0 -6.54191,-3.577 -10.84067,-3.577 -3.76141,0 -4.43944,-1.1925 -8.20085,-1.1925 -1.29774,0 -12.63088,1.8859 -13.64268,2.3848 -1.13989,0.5621 -3.11198,0.6302 -4.25186,1.1922 -0.9095,0.4487 -7.88799,1.1924 -8.94727,1.1924 -3.76141,0 -6.49503,-2.3847 -10.25644,-2.3847 -15.58297,0 -39.52647,1.6227 -55.10945,1.6227 -0.53735,0 4.05361,-4.8739 3.57299,-5.2295 -0.67969,-0.5026 1.80628,-6.9905 1.17398,-7.6139 -0.99974,-0.986 -1.91696,5.9286 -1.37962,4.3389 30.84449,-3.0454 329.51599,4.3957 276.85658,6.867 -14.01442,0.6577 -269.98126,5.2719 -272.72902,1.2071 -0.37996,-0.562 -7.01037,-6.9085 -7.39032,-7.4706 -0.37997,-0.562 5.9231,4.8713 5.54314,4.3093 -0.37996,-0.562 2.23317,0.959 1.75255,0.6035 -3.56429,-2.6363 -4.51785,-4.9283 -5.62963,-8.2176 -0.33985,-1.0054 -0.57016,1.1933 -0.91001,0.1879 -0.2403,-0.7111 0.18614,-0.5408 0.18614,-1.3358 0,-0.7949 0,-1.5898 0,-2.3846 0,-0.7949 0,-1.5898 0,-2.3848 0,-0.7949 -0.37996,-1.8225 0,-2.3846 0.37996,-0.5621 -0.65365,-5.9765 -0.1163,-5.9765 2.6867,0 6.23761,0.7471 8.92432,0.7471 z"
         id="path4075"
         inkscape:connector-curvature="0"
         sodipodi:nodetypes="cssssssssssccccccssssssssssssscscssccssssccssscsssssccsssscssscccsssscssssccssccscsssscscc" />
      <path
         style="fill:#0d79da;fill-opacity:0.62980772;stroke:#000000;stroke-width:0;stroke-linecap:butt;stroke-linejoin:miter;stroke-miterlimit:4;stroke-opacity:1;stroke-dasharray:none"
         d="m 190.36086,904.42828 c 3.57407,-0.1035 7.56798,0.1035 11.14206,0 2.80991,-0.081 5.54092,-0.3405 8.35654,-0.4032 3.24019,-0.072 6.49953,0 9.7493,0 5.10678,0 10.22061,0.078 15.32033,0 19.18718,-0.2924 3.49436,-0.3853 19.4986,-0.8065 2.31173,-0.061 4.64252,0 6.96378,0 3.24976,0 6.49953,0 9.74931,0 10.6778,0 21.3556,0 32.03341,0 7.89229,0 15.78458,0 23.67687,0 3.24977,0 6.49953,0 9.74929,0 1.37715,0 4.36042,-0.088 5.57104,0 1.42426,0.1031 2.75401,0.3001 4.17827,0.4032 1.35117,0.098 2.8271,-0.098 4.17827,0 1.00711,0.073 1.77841,0.3304 2.78551,0.4033 0.90079,0.065 1.90466,-0.085 2.78553,0 0.62285,0.06 0.84646,0.2978 1.39275,0.4032 0.86375,0.1668 1.80068,0.3082 2.78551,0.4033 0.78579,0.076 3.26308,0 4.17827,0 3.24977,0 6.49953,0 9.74931,0 10.21354,0 20.4271,0 30.64065,0 4.64253,0 9.28505,0 13.92757,0 0.9285,0 1.85701,0 2.78552,0 0.46424,0 1.39275,-0.1344 1.39275,0 0,0.1344 -1.85701,0 -1.39275,0 0.9285,0 1.857,0 2.78551,0 0.46425,0 1.39276,-0.1344 1.39276,0 0,0.1344 -1.39276,-0.1344 -1.39276,0 0,0.1901 1.09915,0.2332 1.39276,0.4032 0.41944,0.2429 4.92215,1.6638 5.32793,2.0163 0.32828,0.2851 1.06448,0.9246 1.39276,1.2098 0.14681,0.1275 -5.32793,0.2688 -5.32793,0.4032 0,0.1344 0.32827,0.3082 0,0.4032 -0.0448,0.013 -3.8405,0 -4.17828,0 -0.46425,0 -0.92851,0 -1.39275,0 -0.46426,0 -0.97752,0.06 -1.39276,0 -0.58724,-0.085 -0.80552,-0.3182 -1.39276,-0.4032 -0.41524,-0.06 -0.9285,0 -1.39276,0 -0.46425,0 -0.9285,0 -1.39276,0 -2.7855,0 -5.57102,0 -8.35654,0 -0.46425,0 -0.92851,0 -1.39275,0 -0.46426,0 -0.97752,0.06 -1.39276,0 -0.58724,-0.085 -0.80552,-0.3183 -1.39276,-0.4032 -0.50762,-0.074 -6.16128,0 -6.96378,0 -9.23839,0 1.96965,0.19 -4.17827,-0.4033 -0.88087,-0.085 -1.85701,0 -2.78552,0 -0.46425,0 -0.97751,0.06 -1.39276,0 -0.58723,-0.085 -0.80552,-0.3183 -1.39276,-0.4033 -0.42344,-0.061 -4.60929,0 -5.57102,0 -4.64253,0 -9.28505,0 -13.92758,0 -2.78551,0 -5.57102,0 -8.35654,0 -0.46425,0 -0.9285,0 -1.39275,0 -0.46425,0 -0.97752,0.06 -1.39275,0 -0.58725,-0.085 -0.80553,-0.3182 -1.39277,-0.4032 -0.36621,-0.053 -4.84273,0 -5.57103,0 -4.64252,0 -6.62108,-1.0082 -11.2636,-1.0082 -4.64252,0 -14.61298,0 -19.25551,0 -1.17918,0 -2.1583,0.9359 -2.90706,1.0082 -0.62286,0.06 -5.24546,-1.0932 -5.8327,-1.0082 -0.42387,0.061 0.88891,1.4114 0.26167,1.4114 -3.24976,0 -7.38752,-1.2097 -10.63729,-1.2097 -1.59702,0 -3.24029,0.097 -4.68303,0.2016 -1.00712,0.073 -6.24064,0.1066 -7.22546,0.2016 -1.25132,0.1208 1.54452,0.1088 0.26167,0.2016 -1.42427,0.1032 -4.53,0.099 -5.95425,0.2017 -1.21061,0.088 -3.3059,0.6049 -4.68304,0.6049 -3.71402,0 -5.65206,-0.6049 -9.36608,-0.6049 -3.24977,0 -3.83557,-0.2017 -7.08533,-0.2017 -1.12122,0 -10.91279,0.3189 -11.78696,0.4033 -0.98483,0.095 -2.68867,0.1066 -3.6735,0.2016 -0.78579,0.076 -6.81504,0.2017 -7.73023,0.2017 -3.24976,0 -5.61155,-0.4033 -8.86131,-0.4033 -13.46332,0 -20.71071,1.4114 -34.17404,1.4114 -0.46425,0 -0.9775,0.06 -1.39275,0 -0.58724,-0.085 -0.84647,-0.2978 -1.39276,-0.4032 -0.86375,-0.1668 -3.24976,-0.1345 -2.78551,-0.4033 0.46425,-0.2689 3.82361,0.4033 2.78551,0.4033 -12.12595,0 -1.80427,-0.1192 -4.17826,-0.8066 -0.32828,-0.095 -1.06449,0.095 -1.39276,0 -0.32828,-0.095 -10.32761,1.7081 -10.65588,1.613 -0.32828,-0.095 7.90238,-0.3431 7.48714,-0.4032 -3.07946,-0.4458 -7.53612,0.5562 -8.49667,0 -0.29363,-0.17 3.34081,-2.4511 3.04719,-2.6212 -0.20762,-0.1202 4.43994,-0.4704 4.43994,-0.6048 0,-0.1344 0,-0.2689 0,-0.4033 0,-0.1344 0,-0.2688 0,-0.4032 0,-0.1344 -0.32827,-0.3082 0,-0.4033 0.32828,-0.095 0.92851,0 1.39276,0 2.32126,0 4.64253,0 6.96379,0 z"
         id="path4077"
         inkscape:connector-curvature="0"
         sodipodi:nodetypes="cssssssssssccccccssssssssssssscscssccssssccssscsssssccsssscssscccsssscssssccssccscsssscsc" />
      <path
         sodipodi:nodetypes="cssssssssssccccccssssssssssssscscssccssssccssscsssssccsssscssscccsssscssssccssccscsssscscc"
         inkscape:connector-curvature="0"
         id="path4079"
         d="m 177.79112,813.07218 c 3.78659,-0.6872 10.39103,-0.1518 14.1776,-0.8387 2.977,-0.5403 -16.84308,7.8075 -15.66807,4.8708 3.43285,-8.5796 252.10091,-7.4335 255.54391,-5.0319 4.51991,3.1528 -213.8202,0.5159 -208.41726,0 20.32803,-1.9411 6.07518,1.6358 23.03101,-1.1609 2.44918,-0.4039 4.91856,0 7.37784,0 3.44299,0 6.88599,0 10.32899,0 11.31269,0 22.62537,0 33.93808,0 8.36155,0 16.72311,0 25.08466,0 3.443,0 6.88599,0 10.32898,0 1.45903,0 4.61968,-0.5817 5.90228,0 1.50894,0.6845 2.91776,1.9927 4.4267,2.677 1.43151,0.6495 11.69638,-1.4879 13.12788,-0.8386 1.06699,0.484 5.04821,-2.0002 6.11521,-1.5162 0.95434,0.4329 2.80892,1.1129 3.74216,1.6773 0.65988,0.399 34.11947,6.1703 34.69823,6.8704 0.91511,1.1067 -43.18016,-6.3407 -42.13677,-5.7098 0.83251,0.5035 23.23249,-0.8385 24.2021,-0.8385 3.443,0 43.27272,-3.3547 46.71573,-3.3547 10.82083,0 -13.16304,3.3547 -2.34219,3.3547 4.91855,0 -2.02812,1.6772 2.89043,1.6772 0.98372,0 -8.31578,6.7093 -7.33206,6.7093 0.49185,0 1.47557,-0.8923 1.47557,0 0,0.8925 1.98764,-4.1933 2.47951,-4.1933 0.9837,0 -1.98766,4.1933 -1.00395,4.1933 0.49186,0 3.92295,6.3179 3.92295,7.2102 0,0.8925 -3.92295,-8.1025 -3.92295,-7.2102 0,1.2619 2.74653,-8.5155 3.05761,-7.3867 0.44438,1.6124 0.46872,-2.3732 0.89864,-0.033 0.34778,1.8929 -0.45427,-3.9256 -0.10647,-2.0328 14.70505,4.0615 19.17088,39.7654 -0.89863,36.2233 -0.99013,-0.1748 0.34778,2.0462 0,2.6771 -0.0474,0.086 -4.06885,0 -4.42671,0 -0.49186,0 -0.98372,0 -1.47557,0 -0.49186,0 -1.03564,0.3991 -1.47557,0 -0.62216,-0.5643 -0.85342,-2.1128 -1.47558,-2.6771 -0.43992,-0.399 -0.98371,0 -1.47556,0 -0.49186,0 -0.9837,0 -1.47557,0 -2.95114,0 12.2911,-0.8387 9.33996,-0.8387 -0.49186,0 8.50847,0 8.01662,0 -0.49186,0 -1.82665,0.3991 -2.26659,0 -0.62215,-0.5643 0.72863,-2.9512 0.10647,-3.5156 -0.53781,-0.4879 -4.15458,0 -5.00479,0 -9.7877,0 -28.76286,2.9394 -35.27634,-0.9996 -0.93323,-0.5645 -1.96742,0 -2.95113,0 -0.49186,0 -1.03564,0.3991 -1.47557,0 -0.62215,-0.5645 -0.85342,-2.1128 -1.47557,-2.6772 -0.44863,-0.4069 -4.88336,0 -5.90228,0 -4.91856,0 -9.83712,0 -14.75568,0 -2.95114,0 -5.90227,0 -8.85342,0 -0.49186,0 -0.98371,0 -1.47556,0 -0.49185,0 -1.03564,0.399 -1.47556,0 -0.62217,-0.5643 -0.85343,-2.1126 -1.47558,-2.677 -0.38799,-0.352 -5.13067,0 -5.90228,0 -4.91856,0 -7.01476,-6.6926 -11.93333,-6.6926 -4.91855,0 18.53184,4.1932 13.61328,4.1932 -1.2493,0 -36.30032,2.0197 -37.09359,2.4994 -0.6599,0.399 15.80007,-5.5795 15.17791,-5.0153 -0.44907,0.4074 -20.41566,7.6923 -21.0802,7.6923 -3.44298,0 15.90371,-9.7083 12.46071,-9.7083 -1.69197,0 4.47721,5.6772 2.94868,6.3704 -1.06699,0.4839 -38.25233,-2.6472 -39.29571,-2.0162 -1.32572,0.8018 1.63636,0.7222 0.27723,1.3385 -1.50895,0.6844 -4.79934,0.6541 -6.30829,1.3387 -1.28259,0.5817 -3.50246,4.0155 -4.96148,4.0155 -3.93485,0 -5.98812,-4.0155 -9.92298,-4.0155 -3.443,0 -4.06362,-1.3387 -7.50661,-1.3387 -1.18789,0 -11.56165,2.1171 -12.4878,2.6772 -1.04338,0.631 -2.84854,0.7074 -3.89192,1.3384 -0.83251,0.5036 -7.22025,1.3385 -8.18985,1.3385 -3.443,0 -5.94521,-2.6771 -9.3882,-2.6771 -14.26383,0 -36.18043,1.8218 -50.44427,1.8218 -0.49186,0 3.71046,-5.4716 3.27053,-5.8707 -0.62216,-0.5643 1.65337,-7.8475 1.07459,-8.5475 -0.9151,-1.1068 -1.75468,6.6555 -1.26283,4.8709 28.23341,-3.4187 301.62143,4.9346 253.4198,7.709 -12.82805,0.7383 -247.12649,5.9182 -249.64164,1.3551 -0.3478,-0.631 -6.41693,-7.7556 -6.76471,-8.3866 -0.3478,-0.6309 5.42169,5.4686 5.0739,4.8376 -0.3478,-0.6309 2.04412,1.0766 1.60418,0.6775 -3.26256,-2.9595 -4.13539,-5.5324 -5.15305,-9.2251 -0.31109,-1.1287 -0.5219,1.3396 -0.83298,0.211 -0.21996,-0.7983 0.17039,-0.6071 0.17039,-1.4996 0,-0.8924 0,-1.7847 0,-2.677 0,-0.8923 0,-1.7847 0,-2.6772 0,-0.8922 -0.3478,-2.0458 0,-2.6768 0.34778,-0.6311 -0.59833,-6.7092 -0.10646,-6.7092 2.45926,0 5.70958,0.8385 8.16884,0.8385 z"
         style="fill:#f3a81d;fill-opacity:0.40384617;stroke:#000000;stroke-width:0;stroke-linecap:butt;stroke-linejoin:miter;stroke-miterlimit:4;stroke-opacity:1;stroke-dasharray:none" />
      <path
         inkscape:connector-curvature="0"
         id="path4081"
         d="m 266.34935,823.77478 c 0.8185,0.455 1.63699,0.91 2.45548,1.365 -0.0159,0.076 -0.23084,0.1253 -0.0478,0.2271 0.25884,0.1439 1.01676,0.3115 1.27559,0.4554 0.18302,0.1017 -0.34849,0.1197 -0.0478,0.227 0.30066,0.1074 0.93595,0.1266 1.32341,0.2284 0.54793,0.1441 0.72767,0.3113 1.27559,0.4554 0.38746,0.1018 0.93595,0.1266 1.32341,0.2284 0.33997,0.09 2.21119,0.8214 2.55116,0.9108 0.38746,0.1018 1.02275,0.1211 1.32342,0.2284 0.30066,0.1073 -0.3485,0.1197 -0.0478,0.227 0.42586,0.1521 2.22096,0.3048 2.64683,0.4568 0.30065,0.1074 -0.3485,0.1197 -0.0478,0.2271 0.42545,0.1519 2.22139,0.3048 2.64683,0.4567 2.63922,0.9422 -4.18048,-0.7403 1.22775,0.6824 0.77487,0.2039 2.04552,0.2421 2.64684,0.4568 0.30064,0.1073 -0.3485,0.1197 -0.0478,0.227 0.6013,0.2147 1.87195,0.2529 2.64683,0.4568 1.05663,0.278 1.01912,0.5491 2.59899,0.6838 2.97903,0.2539 0.44037,-0.07 1.41909,-0.2258 0.29917,-0.048 1.07207,0.049 1.37125,0 0.21154,-0.034 -0.39331,-0.3031 0.0478,-0.227 0.44114,0.076 -0.0638,0.3027 -0.0478,0.227 0.27107,-1.2866 0.89823,0.077 -1.22774,-0.6825 -0.30066,-0.1073 0.23085,-0.1253 0.0478,-0.227 -0.25883,-0.1439 -0.85038,-0.3036 -1.27558,-0.4554 -0.42519,-0.1518 -0.72767,-0.3113 -1.27558,-0.4555 -0.38746,-0.1018 -0.93595,-0.1266 -1.32341,-0.2283 -5.4082,-1.4229 1.41144,0.2599 -1.22775,-0.6825 -0.60131,-0.2147 -1.87196,-0.2529 -2.64683,-0.4567 -0.54792,-0.1442 -0.72766,-0.3113 -1.27558,-0.4554 -0.77486,-0.204 -2.04552,-0.2421 -2.64683,-0.4568 -0.30066,-0.1074 0.34849,-0.1197 0.0478,-0.227 -0.63778,-0.2278 -3.33245,-0.4574 -3.97024,-0.6851 -2.63922,-0.9423 4.18047,0.7403 -1.22775,-0.6825 -0.38746,-0.1018 -0.93595,-0.1266 -1.32341,-0.2284 -0.54792,-0.1441 -0.72766,-0.3112 -1.27558,-0.4554 -0.38747,-0.1018 -0.89087,-0.141 -1.32342,-0.2284 -2.2054,-0.4463 -4.37949,-0.9126 -6.56924,-1.3689 z"
         style="fill:#2d6eba;fill-opacity:0.6682692;stroke:#000000;stroke-width:0;stroke-linecap:butt;stroke-linejoin:miter;stroke-miterlimit:4;stroke-opacity:1;stroke-dasharray:none" />
      <path
         style="fill:#2d6eba;fill-opacity:0.6682692;stroke:#000000;stroke-width:0;stroke-linecap:butt;stroke-linejoin:miter;stroke-miterlimit:4;stroke-opacity:1;stroke-dasharray:none"
         d="m 232.97953,817.83358 c 0.6282,0.6577 1.2564,1.3153 1.88459,1.973 -0.0405,0.068 -0.26188,0.056 -0.12144,0.2033 0.19866,0.208 0.86511,0.5752 1.06376,0.7831 0.14047,0.1471 -0.37218,0.019 -0.12144,0.2034 0.25072,0.1845 0.84987,0.3767 1.18519,0.5797 0.47413,0.2873 0.58962,0.4959 1.06376,0.7832 0.33533,0.203 0.84987,0.3767 1.1852,0.5797 0.29416,0.1784 1.83331,1.388 2.12749,1.5663 0.33533,0.2031 0.93445,0.3952 1.1852,0.5798 0.25073,0.1846 -0.37219,0.019 -0.12144,0.2033 0.35512,0.2615 2.01524,0.8981 2.37039,1.1596 0.25071,0.1846 -0.37218,0.019 -0.12146,0.2034 0.35478,0.2612 2.0156,0.8983 2.37039,1.1595 2.20095,1.6203 -3.73755,-1.8495 0.94232,0.9864 0.6705,0.4064 1.86893,0.7905 2.37039,1.1596 0.25071,0.1846 -0.37218,0.019 -0.12144,0.2034 0.50143,0.3691 1.69986,0.7532 2.37039,1.1595 0.91431,0.5541 0.78799,0.8023 2.24893,1.363 2.75481,1.0571 0.44318,0.054 1.4281,0.173 0.30107,0.036 1.00556,0.34 1.30663,0.3765 0.21289,0.026 -0.27362,-0.3966 0.12144,-0.2033 0.39507,0.1932 -0.16191,0.2711 -0.12144,0.2033 0.68819,-1.1522 0.83063,0.3187 -0.94229,-0.9865 -0.25074,-0.1846 0.26191,-0.056 0.12144,-0.2033 -0.19866,-0.208 -0.70917,-0.5221 -1.06376,-0.7831 -0.35459,-0.261 -0.58964,-0.4958 -1.06373,-0.7832 -0.33533,-0.203 -0.84987,-0.3767 -1.1852,-0.5798 -4.6798,-2.836 1.25854,0.6341 -0.94231,-0.9864 -0.50146,-0.3692 -1.69989,-0.7532 -2.37039,-1.1596 -0.47413,-0.2873 -0.58962,-0.4958 -1.06376,-0.7831 -0.67048,-0.4063 -1.86894,-0.7904 -2.37039,-1.1596 -0.25072,-0.1845 0.37217,-0.018 0.12144,-0.2033 -0.53185,-0.3916 -3.0237,-1.3478 -3.55559,-1.7393 -2.20093,-1.6203 3.73754,1.8495 -0.9423,-0.9865 -0.33532,-0.2031 -0.84987,-0.3768 -1.1852,-0.5798 -0.47411,-0.2873 -0.58963,-0.4958 -1.06375,-0.7831 -0.33533,-0.2031 -0.80208,-0.3782 -1.1852,-0.5798 -1.95309,-1.0289 -3.86968,-2.0682 -5.80452,-3.1023 z"
         id="path4083"
         inkscape:connector-curvature="0" />
      <path
         inkscape:connector-curvature="0"
         id="path4085"
         d="m 336.56862,824.63418 c 0.82535,0.3702 1.65071,0.7403 2.47606,1.1104 -0.012,0.045 -0.22043,0.052 -0.0359,0.1348 0.26101,0.1171 1.01293,0.3033 1.27392,0.4204 0.18456,0.083 -0.33614,0.036 -0.0359,0.1348 0.30027,0.099 0.92462,0.1804 1.3098,0.2855 0.54474,0.1487 0.72922,0.2716 1.27391,0.4204 0.38518,0.1051 0.92463,0.1803 1.3098,0.2855 0.33798,0.092 2.20986,0.7484 2.54784,0.8407 0.38518,0.1051 1.00954,0.1864 1.3098,0.2855 0.30026,0.099 -0.33616,0.036 -0.0359,0.1348 0.4253,0.1403 2.19427,0.4307 2.6196,0.571 0.30025,0.099 -0.33616,0.036 -0.0359,0.1349 0.42488,0.1402 2.1947,0.4308 2.61959,0.571 2.63578,0.8697 -4.13835,-0.9137 1.23803,0.5552 0.77032,0.2105 2.01908,0.3729 2.6196,0.571 0.30026,0.099 -0.33614,0.036 -0.0359,0.1349 0.60051,0.1982 1.84927,0.3605 2.61959,0.571 1.05042,0.287 1.02682,0.4501 2.58371,0.7059 2.93572,0.4822 0.42873,0 1.38157,0.016 0.29126,0 1.05442,0.1473 1.34568,0.1507 0.20595,0 -0.40072,-0.23 0.0359,-0.1348 0.4366,0.095 -0.0478,0.1798 -0.0359,0.1348 0.20334,-0.764 0.88517,0.1454 -1.23802,-0.5552 -0.30026,-0.099 0.22044,-0.052 0.0359,-0.1348 -0.26101,-0.1171 -0.84927,-0.2802 -1.27391,-0.4204 -0.42464,-0.1401 -0.72922,-0.2715 -1.27392,-0.4203 -0.38518,-0.1052 -0.92462,-0.1804 -1.30979,-0.2855 -5.37641,-1.4688 1.39771,0.3146 -1.23804,-0.5552 -0.60052,-0.1982 -1.84928,-0.3606 -2.6196,-0.571 -0.54474,-0.1487 -0.72921,-0.2716 -1.27392,-0.4204 -0.7703,-0.2105 -2.01906,-0.3729 -2.6196,-0.571 -0.30026,-0.099 0.33616,-0.036 0.0359,-0.1349 -0.63694,-0.2101 -3.29243,-0.6463 -3.92939,-0.8565 -2.63578,-0.8697 4.13834,0.9137 -1.23804,-0.5552 -0.38517,-0.1051 -0.92461,-0.1803 -1.3098,-0.2855 -0.54473,-0.1486 -0.72921,-0.2715 -1.27391,-0.4203 -0.38518,-0.1052 -0.88113,-0.1842 -1.3098,-0.2855 -2.18591,-0.5164 -4.34207,-1.0416 -6.5131,-1.5625 z"
         style="fill:#2d6eba;fill-opacity:0.6682692;stroke:#000000;stroke-width:0;stroke-linecap:butt;stroke-linejoin:miter;stroke-miterlimit:4;stroke-opacity:1;stroke-dasharray:none" />
      <path
         style="fill:#2d6eba;fill-opacity:0.6682692;stroke:#000000;stroke-width:0;stroke-linecap:butt;stroke-linejoin:miter;stroke-miterlimit:4;stroke-opacity:1;stroke-dasharray:none"
         d="m 297.268,825.71168 c 0.7607,0.158 1.52144,0.3161 2.28214,0.4741 0.0544,-0.022 -0.007,-0.1016 0.1632,-0.066 0.24056,0.05 0.7373,0.2535 0.97786,0.3035 0.17002,0.035 -0.0673,-0.1379 0.16316,-0.066 0.23051,0.072 0.54755,0.2693 0.81471,0.3696 0.37789,0.142 0.6,0.1615 0.97785,0.3034 0.26712,0.1004 0.5476,0.2694 0.81471,0.3697 0.2345,0.088 1.72124,0.5188 1.95576,0.6068 0.26711,0.1004 0.58419,0.2982 0.8147,0.3697 0.23048,0.072 -0.0673,-0.1378 0.16315,-0.066 0.32648,0.1013 1.30293,0.6381 1.62938,0.7394 0.2305,0.072 -0.0673,-0.1378 0.16323,-0.066 0.32613,0.1011 1.30318,0.6382 1.62935,0.7394 2.02325,0.6277 -2.58895,-1.1636 1.14104,0.2371 0.53444,0.2006 1.16841,0.5964 1.6294,0.7394 0.23051,0.071 -0.0673,-0.1379 0.16321,-0.066 0.46098,0.143 1.09494,0.5388 1.62935,0.7395 0.72879,0.2736 0.93294,0.2007 1.79256,0.6731 1.62093,0.8908 0.1517,0.1558 0.48832,0.5023 0.10035,0.1064 0.54859,0.3302 0.6515,0.4361 0.0746,0.075 -0.43472,-0.057 -0.16316,0.066 0.27158,0.1233 0.21757,-0.088 0.16316,-0.066 -0.9247,0.3759 0.48872,0.2686 -1.14108,-0.2371 -0.23045,-0.072 0.007,0.1017 -0.16312,0.066 -0.24059,-0.05 -0.65195,-0.2023 -0.97787,-0.3034 -0.32598,-0.1012 -0.59999,-0.1615 -0.97793,-0.3034 -0.26711,-0.1004 -0.54755,-0.2693 -0.81471,-0.3697 -3.73005,-1.4007 0.88236,0.3906 -1.141,-0.237 -0.46096,-0.1431 -1.09493,-0.5388 -1.62938,-0.7395 -0.37792,-0.1419 -0.60001,-0.1615 -0.97786,-0.3034 -0.53447,-0.2006 -1.16843,-0.5964 -1.6294,-0.7394 -0.23052,-0.072 0.0673,0.1379 -0.1632,0.066 -0.48897,-0.1517 -1.95512,-0.9575 -2.44407,-1.1092 -2.02324,-0.6277 2.58898,1.1636 -1.14102,-0.2371 -0.26715,-0.1003 -0.54758,-0.2693 -0.81474,-0.3696 -0.37788,-0.142 -0.59998,-0.1615 -0.97786,-0.3034 -0.26711,-0.1004 -0.53799,-0.2518 -0.81468,-0.3697 -1.41146,-0.6013 -2.82444,-1.1882 -4.23666,-1.7823 z"
         id="path4087"
         inkscape:connector-curvature="0" />
      <path
         inkscape:connector-curvature="0"
         id="path4089"
         d="m 370.96905,820.03418 c 0.93492,0.8071 1.86984,1.6141 2.80472,2.4212 -0.0437,0.1167 -0.34004,0.1697 -0.13103,0.3502 0.29567,0.2552 1.23779,0.6051 1.53343,0.8603 0.20905,0.1804 -0.49247,0.1475 -0.13103,0.3503 0.36142,0.2028 1.18765,0.3059 1.66443,0.5099 0.67418,0.2889 0.85924,0.5714 1.53342,0.8603 0.47678,0.204 1.18766,0.3059 1.66444,0.5099 0.41829,0.1793 2.6485,1.5413 3.06681,1.7205 0.47679,0.2041 1.303,0.3072 1.66445,0.51 0.36143,0.2027 -0.49248,0.1475 -0.13103,0.3503 0.51192,0.2872 2.81693,0.7326 3.32888,1.0199 0.36141,0.2027 -0.49248,0.1475 -0.13106,0.3503 0.51143,0.287 2.81745,0.733 3.32888,1.0199 3.17269,1.7798 -5.25197,-1.6406 1.40238,1.2106 0.95342,0.4084 2.60604,0.6143 3.32889,1.0198 0.36141,0.2028 -0.49246,0.1476 -0.13101,0.3503 0.72282,0.4056 2.37543,0.6114 3.32888,1.0199 1.30009,0.5571 1.1693,0.9777 3.19782,1.3702 3.82505,0.7403 0.59784,-0.059 1.92651,-0.1906 0.40615,-0.04 1.38933,0.1998 1.79547,0.1597 0.2872,-0.029 -0.42378,-0.5203 0.13103,-0.3503 0.5548,0.17 -0.17469,0.467 -0.13103,0.3503 0.74252,-1.9851 1.15333,0.2231 -1.40236,-1.2106 -0.36143,-0.2027 0.34009,-0.1698 0.13103,-0.3503 -0.29565,-0.2552 -1.02227,-0.5735 -1.53341,-0.8602 -0.51114,-0.2868 -0.85925,-0.5714 -1.5334,-0.8603 -0.47678,-0.2041 -1.18766,-0.3059 -1.66443,-0.51 -6.65436,-2.8512 1.77019,0.5697 -1.40239,-1.2105 -0.72285,-0.4055 -2.37547,-0.6114 -3.32888,-1.0199 -0.67417,-0.2889 -0.85922,-0.5714 -1.53342,-0.8602 -0.95338,-0.4086 -2.60602,-0.6144 -3.32888,-1.0199 -0.36142,-0.2028 0.49247,-0.1476 0.13103,-0.3503 -0.76666,-0.4302 -4.22659,-1.0998 -4.99332,-1.5298 -3.17266,-1.78 5.25197,1.6406 -1.40236,-1.2106 -0.47678,-0.2041 -1.18765,-0.3059 -1.66444,-0.51 -0.67417,-0.2889 -0.85924,-0.5714 -1.53341,-0.8602 -0.47679,-0.2041 -1.12433,-0.3232 -1.66444,-0.51 -2.7539,-0.9529 -5.46078,-1.9334 -8.19117,-2.9001 z"
         style="fill:#2d6eba;fill-opacity:0.6682692;stroke:#000000;stroke-width:0;stroke-linecap:butt;stroke-linejoin:miter;stroke-miterlimit:4;stroke-opacity:1;stroke-dasharray:none" />
      <path
         transform="matrix(0.44609439,0,0,0.40372304,525.7222,328.1955)"
         d="m -669.85944,1471.4869 c 0,4.5989 -4.55659,8.327 -10.17743,8.327 -5.62083,0 -10.17742,-3.7281 -10.17742,-8.327 0,-4.5988 4.55659,-8.3269 10.17742,-8.3269 5.62084,0 10.17743,3.7281 10.17743,8.3269 z"
         sodipodi:ry="8.3269815"
         sodipodi:rx="10.177423"
         sodipodi:cy="1471.4869"
         sodipodi:cx="-680.03687"
         id="path4091"
         style="color:#000000;fill:#618d9f;fill-opacity:1;fill-rule:evenodd;stroke:#000000;stroke-width:0;stroke-linecap:butt;stroke-linejoin:miter;stroke-miterlimit:4;stroke-opacity:1;stroke-dasharray:none;stroke-dashoffset:0;marker:none;visibility:visible;display:inline;overflow:visible;enable-background:accumulate"
         sodipodi:type="arc" />
      <path
         transform="matrix(0.33457079,0,0,0.20186152,437.39679,625.41887)"
         d="m -555.13215,1489.0662 c 0,7.1538 -6.62776,12.953 -14.80352,12.953 -8.17576,0 -14.80352,-5.7992 -14.80352,-12.953 0,-7.1538 6.62776,-12.9531 14.80352,-12.9531 8.17576,0 14.80352,5.7993 14.80352,12.9531 z"
         sodipodi:ry="12.953083"
         sodipodi:rx="14.803523"
         sodipodi:cy="1489.0662"
         sodipodi:cx="-569.93567"
         id="path4093"
         style="color:#000000;fill:#427b8b;fill-opacity:1;fill-rule:evenodd;stroke:#000000;stroke-width:0;stroke-linecap:butt;stroke-linejoin:miter;stroke-miterlimit:4;stroke-opacity:1;stroke-dasharray:none;stroke-dashoffset:0;marker:none;visibility:visible;display:inline;overflow:visible;enable-background:accumulate"
         sodipodi:type="arc" />
      <path
         transform="matrix(0.31226607,0,0,0.2124858,424.68453,606.15816)"
         d="m -440.40484,1478.8887 c 0,9.7087 -8.2847,17.5792 -18.5044,17.5792 -10.2197,0 -18.5044,-7.8705 -18.5044,-17.5792 0,-9.7087 8.2847,-17.5792 18.5044,-17.5792 10.2197,0 18.5044,7.8705 18.5044,17.5792 z"
         sodipodi:ry="17.579184"
         sodipodi:rx="18.504404"
         sodipodi:cy="1478.8887"
         sodipodi:cx="-458.90924"
         id="path4095"
         style="color:#000000;fill:#488788;fill-opacity:1;fill-rule:evenodd;stroke:#000000;stroke-width:0;stroke-linecap:butt;stroke-linejoin:miter;stroke-miterlimit:4;stroke-opacity:1;stroke-dasharray:none;stroke-dashoffset:0;marker:none;visibility:visible;display:inline;overflow:visible;enable-background:accumulate"
         sodipodi:type="arc" />
      <path
         sodipodi:nodetypes="cssssssssssccccccssssssssssssscscssccssssccssscsssssccsssscssscccsssscssssccssccscsssscsc"
         inkscape:connector-curvature="0"
         id="path4097"
         d="m 200.71418,934.60518 c 3.11656,-0.1926 6.59924,0.1925 9.71581,0 2.45023,-0.1514 4.83165,-0.6337 7.28685,-0.7504 2.82543,-0.1343 5.66755,0 8.50134,0 4.45307,0 8.9123,0.1446 13.35922,0 16.73111,-0.5441 3.04707,-0.7169 17.00267,-1.5007 2.0158,-0.1132 4.04825,0 6.07238,0 2.83377,0 5.66755,0 8.50133,0 9.31098,0 18.62195,0 27.93294,0 6.88203,0 13.76405,0 20.64608,0 2.83378,0 5.66756,0 8.50133,0 1.20086,0 3.80226,-0.1631 4.85791,0 1.24194,0.1919 2.40148,0.5585 3.64343,0.7503 1.17821,0.1821 2.46521,-0.1819 3.64342,0 0.87819,0.1357 1.55076,0.6148 2.42895,0.7504 0.78548,0.1214 1.66085,-0.1581 2.42897,0 0.54312,0.1119 0.73811,0.5541 1.21446,0.7504 0.75319,0.3102 1.57019,0.5734 2.42896,0.7503 0.6852,0.1412 2.84538,0 3.64342,0 2.83377,0 5.66755,0 8.50134,0 8.90614,0 17.8123,0 26.71847,0 4.04824,0 8.09649,0 12.14475,0 0.80965,0 1.61929,0 2.42895,0 0.40482,0 1.21447,-0.2501 1.21447,0 0,0.2502 -1.6193,0 -1.21447,0 0.80965,0 1.6193,0 2.42895,0 0.40482,0 1.21448,-0.2501 1.21448,0 0,0.2502 -1.21448,-0.2501 -1.21448,0 0,0.3538 0.95845,0.434 1.21448,0.7504 0.36575,0.4519 4.29208,3.0959 4.64592,3.7517 0.28625,0.5306 0.92822,1.7205 1.21448,2.2511 0.12802,0.2372 -4.64593,0.5002 -4.64593,0.7503 0,0.2501 0.28626,0.5735 0,0.7504 -0.039,0.024 -3.34889,0 -3.64343,0 -0.40482,0 -0.80965,0 -1.21447,0 -0.40483,0 -0.85239,0.1118 -1.21448,0 -0.51207,-0.1582 -0.70241,-0.5921 -1.21447,-0.7504 -0.36209,-0.1118 -0.80965,0 -1.21448,0 -0.40482,0 -0.80965,0 -1.21448,0 -2.42894,0 -4.85789,0 -7.28685,0 -0.40483,0 -0.80965,0 -1.21448,0 -0.40482,0 -0.85239,0.1119 -1.21446,0 -0.51208,-0.1582 -0.70242,-0.5921 -1.21449,-0.7503 -0.44264,-0.1368 -5.3726,0 -6.07238,0 -8.05581,0 1.71753,0.3537 -3.64342,-0.7504 -0.76811,-0.1582 -1.6193,0 -2.42896,0 -0.40482,0 -0.85238,0.1119 -1.21447,0 -0.51207,-0.1582 -0.70241,-0.5922 -1.21448,-0.7503 -0.36924,-0.1141 -4.01927,0 -4.8579,0 -4.04825,0 -8.09651,0 -12.14476,0 -2.42895,0 -4.8579,0 -7.28685,0 -0.40482,0 -0.80966,0 -1.21448,0 -0.40482,0 -0.85238,0.1119 -1.21446,0 -0.51208,-0.1582 -0.70242,-0.5922 -1.21449,-0.7504 -0.31934,-0.099 -4.22283,0 -4.8579,0 -4.04826,0 -5.77355,-1.8759 -9.82179,-1.8759 -4.04825,0 -12.74244,0 -16.7907,0 -1.02823,0 -1.88202,1.7414 -2.53493,1.8759 -0.54313,0.1119 -4.57402,-2.034 -5.08609,-1.8759 -0.3696,0.1142 0.77513,2.6263 0.22819,2.6263 -2.83378,0 -6.44188,-2.251 -9.27565,-2.251 -1.3926,0 -2.82552,0.1808 -4.08359,0.3751 -0.87819,0.1356 -5.4418,0.1983 -6.30055,0.3752 -1.09115,0.2246 1.34681,0.2024 0.22817,0.3751 -1.24194,0.1919 -3.95012,0.1834 -5.19207,0.3753 -1.05565,0.163 -2.88273,1.1255 -4.08358,1.1255 -3.2386,0 -4.92856,-1.1255 -8.16717,-1.1255 -2.83377,0 -3.34459,-0.3753 -6.17837,-0.3753 -0.97768,0 -9.51586,0.5934 -10.27815,0.7504 -0.85876,0.1769 -2.3445,0.1983 -3.20326,0.3752 -0.68521,0.1411 -5.94267,0.3752 -6.74071,0.3752 -2.83378,0 -4.89324,-0.7504 -7.72702,-0.7504 -11.73993,0 -18.05961,2.6262 -29.79955,2.6262 -0.40482,0 -0.85238,0.1119 -1.21448,0 -0.51206,-0.1582 -0.73811,-0.5542 -1.21447,-0.7503 -0.75318,-0.3102 -2.83376,-0.2501 -2.42895,-0.7504 0.40483,-0.5002 3.33417,0.7504 2.42895,0.7504 -10.57375,0 -1.57331,-0.2218 -3.64342,-1.5007 -0.28626,-0.1769 -0.92823,0.1768 -1.21448,0 -0.28626,-0.1769 7.50381,0.937 7.21757,0.7602 -0.28627,-0.1769 -3.01483,0.1086 -3.37693,0 -2.68526,-0.8295 2.50874,-0.4591 1.67115,-1.4941 -0.25604,-0.3164 -3.69061,-2.3197 -3.94664,-2.6361 -0.18104,-0.2237 -5.20857,-0.1284 -5.20857,-0.3784 0,-0.2501 0,-0.5003 0,-0.7504 0,-0.2501 0,-0.5002 0,-0.7503 0,-0.2502 -0.28626,-0.5735 0,-0.7504 0.28625,-0.1769 4.937,-0.7471 5.34182,-0.7471 2.02413,0 -0.0791,0.7471 1.94503,0.7471 z"
         style="fill:#757d7f;fill-opacity:0.98557691;stroke:#000000;stroke-width:0;stroke-linecap:butt;stroke-linejoin:miter;stroke-miterlimit:4;stroke-opacity:1;stroke-dasharray:none" />
    </g>
  </g>
</svg>
